<svg width="17" height="15" viewBox="0 0 17 15" fill="none" xmlns="http://www.w3.org/2000/svg">
<g filter="url(#filter0_d_375_1060)">
<path d="M12.5725 2.17841C12.5091 2.12309 12.4306 2.08787 12.3471 2.07723C12.2636 2.06659 12.1788 2.081 12.1035 2.11864L10.3383 2.99755L8.8646 0.549617C8.82671 0.486802 8.77324 0.434841 8.70937 0.398772C8.64549 0.362703 8.57338 0.34375 8.50003 0.34375C8.42667 0.34375 8.35456 0.362703 8.29069 0.398772C8.22681 0.434841 8.17334 0.486802 8.13546 0.549617L6.66171 2.9986L4.89722 2.1197C4.8221 2.08239 4.73764 2.0681 4.65444 2.07862C4.57123 2.08915 4.49299 2.12401 4.42952 2.17883C4.36606 2.23366 4.3202 2.30601 4.29771 2.38681C4.27521 2.4676 4.27708 2.55324 4.30308 2.63298L5.60386 6.61829C5.61694 6.65833 5.63884 6.69492 5.66795 6.72535C5.69706 6.75579 5.73264 6.7793 5.77206 6.79415C5.81147 6.809 5.85372 6.81481 5.89568 6.81114C5.93764 6.80748 5.97824 6.79443 6.01448 6.77298C6.02327 6.7677 6.92222 6.24985 8.50003 6.24985C10.0778 6.24985 10.9768 6.7677 10.9849 6.77263C11.0211 6.79429 11.0618 6.80751 11.1039 6.8113C11.1459 6.8151 11.1883 6.80937 11.2279 6.79454C11.2674 6.77971 11.3031 6.75617 11.3323 6.72566C11.3615 6.69515 11.3835 6.65845 11.3966 6.61829L12.6973 2.63403C12.7241 2.55427 12.7265 2.46836 12.7043 2.38723C12.682 2.30609 12.6362 2.2334 12.5725 2.17841ZM10.1819 5.01235C10.1704 5.07741 10.1364 5.13636 10.0858 5.17885C10.0352 5.22134 9.97129 5.24467 9.90522 5.24473C9.88873 5.24471 9.87226 5.2433 9.85601 5.24052C8.95765 5.0863 8.03959 5.0863 7.14124 5.24052C7.10486 5.24693 7.06757 5.24612 7.0315 5.23813C6.99544 5.23014 6.9613 5.21512 6.93104 5.19393C6.86992 5.15114 6.8283 5.08583 6.81534 5.01235C6.80238 4.93888 6.81914 4.86327 6.86193 4.80215C6.90472 4.74103 6.97003 4.69941 7.04351 4.68645C8.00653 4.52099 8.99072 4.52099 9.95374 4.68645C9.99025 4.6927 10.0252 4.7061 10.0565 4.72588C10.0878 4.74565 10.1149 4.77142 10.1362 4.80171C10.1576 4.83199 10.1727 4.86619 10.1808 4.90233C10.1889 4.93848 10.1897 4.97587 10.1833 5.01235H10.1819Z" fill="#3267E3"/>
</g>
<defs>
<filter id="filter0_d_375_1060" x="0.282104" y="0.34375" width="16.4373" height="14.4688" filterUnits="userSpaceOnUse" color-interpolation-filters="sRGB">
<feFlood flood-opacity="0" result="BackgroundImageFix"/>
<feColorMatrix in="SourceAlpha" type="matrix" values="0 0 0 0 0 0 0 0 0 0 0 0 0 0 0 0 0 0 127 0" result="hardAlpha"/>
<feOffset dy="4"/>
<feGaussianBlur stdDeviation="2"/>
<feComposite in2="hardAlpha" operator="out"/>
<feColorMatrix type="matrix" values="0 0 0 0 0 0 0 0 0 0 0 0 0 0 0 0 0 0 0.25 0"/>
<feBlend mode="normal" in2="BackgroundImageFix" result="effect1_dropShadow_375_1060"/>
<feBlend mode="normal" in="SourceGraphic" in2="effect1_dropShadow_375_1060" result="shape"/>
</filter>
</defs>
</svg>
