<svg width="21" height="22" viewBox="0 0 21 22" fill="none" xmlns="http://www.w3.org/2000/svg">
<path d="M21 13.6247V19.7497C21 20.2138 20.8156 20.659 20.4874 20.9871C20.1592 21.3153 19.7141 21.4997 19.25 21.4997H1.75C1.28587 21.4997 0.840752 21.3153 0.512563 20.9871C0.184374 20.659 0 20.2138 0 19.7497V13.6247C0 13.3926 0.0921874 13.1701 0.256282 13.006C0.420376 12.8419 0.642936 12.7497 0.875 12.7497C1.10706 12.7497 1.32962 12.8419 1.49372 13.006C1.65781 13.1701 1.75 13.3926 1.75 13.6247V19.7497H19.25V13.6247C19.25 13.3926 19.3422 13.1701 19.5063 13.006C19.6704 12.8419 19.8929 12.7497 20.125 12.7497C20.3571 12.7497 20.5796 12.8419 20.7437 13.006C20.9078 13.1701 21 13.3926 21 13.6247ZM6.74406 6.36878L9.625 3.48674V13.6247C9.625 13.8568 9.71719 14.0793 9.88128 14.2434C10.0454 14.4075 10.2679 14.4997 10.5 14.4997C10.7321 14.4997 10.9546 14.4075 11.1187 14.2434C11.2828 14.0793 11.375 13.8568 11.375 13.6247V3.48674L14.2559 6.36878C14.4201 6.53296 14.6428 6.6252 14.875 6.6252C15.1072 6.6252 15.3299 6.53296 15.4941 6.36878C15.6582 6.20459 15.7505 5.98191 15.7505 5.74971C15.7505 5.51752 15.6582 5.29483 15.4941 5.13065L11.1191 0.755649C11.0378 0.674295 10.9413 0.609756 10.8351 0.565722C10.7288 0.521688 10.615 0.499023 10.5 0.499023C10.385 0.499023 10.2712 0.521688 10.1649 0.565722C10.0587 0.609756 9.9622 0.674295 9.88094 0.755649L5.50594 5.13065C5.34175 5.29483 5.24951 5.51752 5.24951 5.74971C5.24951 5.98191 5.34175 6.20459 5.50594 6.36878C5.67012 6.53296 5.89281 6.6252 6.125 6.6252C6.35719 6.6252 6.57988 6.53296 6.74406 6.36878Z" fill="white"/>
</svg>
