<svg width="28" height="28" viewBox="0 0 28 28" fill="none" xmlns="http://www.w3.org/2000/svg">
<path d="M23.6248 14.2361C23.6292 14.0786 23.6292 13.9211 23.6248 13.7636L25.2567 11.7248C25.3422 11.6178 25.4015 11.4921 25.4296 11.358C25.4577 11.2239 25.4539 11.085 25.4186 10.9526C25.1506 9.94719 24.7504 8.98174 24.2286 8.08152C24.1602 7.96375 24.0652 7.86356 23.9513 7.78894C23.8374 7.71431 23.7076 7.66731 23.5723 7.65168L20.9779 7.36293C20.87 7.24918 20.7606 7.13981 20.6498 7.03481L20.3436 4.43387C20.3278 4.29848 20.2806 4.16864 20.2058 4.0547C20.131 3.94076 20.0306 3.84588 19.9126 3.77762C19.0125 3.25617 18.047 2.85673 17.0415 2.58981C16.9091 2.55443 16.7703 2.55065 16.6362 2.57877C16.502 2.60689 16.3764 2.66611 16.2693 2.75168L14.2361 4.37481C14.0786 4.37481 13.9211 4.37481 13.7636 4.37481L11.7248 2.74621C11.6178 2.66065 11.4921 2.60142 11.358 2.5733C11.2239 2.54519 11.085 2.54897 10.9526 2.58434C9.94719 2.85234 8.98174 3.25249 8.08152 3.77434C7.96375 3.84272 7.86356 3.93766 7.78894 4.05159C7.71431 4.16552 7.66731 4.29529 7.65168 4.43059L7.36293 7.02934C7.24918 7.13798 7.13981 7.24736 7.03481 7.35746L4.43387 7.65606C4.29848 7.67181 4.16864 7.71897 4.0547 7.79379C3.94076 7.86861 3.84588 7.96901 3.77762 8.08699C3.25628 8.98733 2.8565 9.95276 2.58871 10.9581C2.55349 11.0906 2.54989 11.2295 2.57819 11.3636C2.6065 11.4977 2.66593 11.6233 2.75168 11.7303L4.37481 13.7636C4.37481 13.9211 4.37481 14.0786 4.37481 14.2361L2.74621 16.2748C2.66065 16.3819 2.60142 16.5075 2.5733 16.6416C2.54519 16.7757 2.54897 16.9146 2.58434 17.047C2.85234 18.0524 3.25249 19.0179 3.77434 19.9181C3.84272 20.0359 3.93766 20.1361 4.05159 20.2107C4.16552 20.2853 4.29529 20.3323 4.43059 20.3479L7.02496 20.6367C7.13361 20.7504 7.24298 20.8598 7.35309 20.9648L7.65606 23.5657C7.67181 23.7011 7.71897 23.831 7.79379 23.9449C7.86861 24.0588 7.96901 24.1537 8.08699 24.222C8.98733 24.7433 9.95276 25.1431 10.9581 25.4109C11.0906 25.4461 11.2295 25.4497 11.3636 25.4214C11.4977 25.3931 11.6233 25.3337 11.7303 25.2479L13.7636 23.6248C13.9211 23.6292 14.0786 23.6292 14.2361 23.6248L16.2748 25.2567C16.3819 25.3422 16.5075 25.4015 16.6416 25.4296C16.7757 25.4577 16.9146 25.4539 17.047 25.4186C18.0526 25.151 19.0181 24.7509 19.9181 24.2286C20.0359 24.1602 20.1361 24.0652 20.2107 23.9513C20.2853 23.8374 20.3323 23.7076 20.3479 23.5723L20.6367 20.9779C20.7504 20.87 20.8598 20.7606 20.9648 20.6498L23.5657 20.3436C23.7011 20.3278 23.831 20.2806 23.9449 20.2058C24.0588 20.131 24.1537 20.0306 24.222 19.9126C24.7433 19.0123 25.1431 18.0469 25.4109 17.0415C25.4461 16.909 25.4497 16.7701 25.4214 16.636C25.3931 16.5019 25.3337 16.3763 25.2479 16.2693L23.6248 14.2361ZM13.9998 18.3748C13.1345 18.3748 12.2887 18.1182 11.5692 17.6375C10.8497 17.1568 10.289 16.4735 9.95783 15.674C9.6267 14.8746 9.54006 13.995 9.70887 13.1463C9.87768 12.2976 10.2944 11.5181 10.9062 10.9062C11.5181 10.2944 12.2976 9.87768 13.1463 9.70887C13.995 9.54006 14.8746 9.6267 15.674 9.95783C16.4735 10.289 17.1568 10.8497 17.6375 11.5692C18.1182 12.2887 18.3748 13.1345 18.3748 13.9998C18.3748 15.1601 17.9139 16.2729 17.0934 17.0934C16.2729 17.9139 15.1601 18.3748 13.9998 18.3748Z" fill="#181818"/>
</svg>
