<svg width="25" height="24" viewBox="0 0 25 24" fill="none" xmlns="http://www.w3.org/2000/svg">
<g clip-path="url(#clip0_375_397)">
<path d="M20.8488 9.7288L13.3488 2.65255C13.3451 2.64935 13.3417 2.6459 13.3385 2.64223C13.0624 2.39111 12.7025 2.25195 12.3293 2.25195C11.956 2.25195 11.5962 2.39111 11.3201 2.64223L11.3097 2.65255L3.81818 9.7288C3.66537 9.86932 3.54339 10.04 3.45996 10.2301C3.37653 10.4202 3.33346 10.6256 3.3335 10.8332V19.5004C3.3335 19.8982 3.49153 20.2797 3.77284 20.561C4.05414 20.8423 4.43567 21.0004 4.8335 21.0004H9.3335C9.73132 21.0004 10.1129 20.8423 10.3942 20.561C10.6755 20.2797 10.8335 19.8982 10.8335 19.5004V15.0004H13.8335V19.5004C13.8335 19.8982 13.9915 20.2797 14.2728 20.561C14.5541 20.8423 14.9357 21.0004 15.3335 21.0004H19.8335C20.2313 21.0004 20.6129 20.8423 20.8942 20.561C21.1755 20.2797 21.3335 19.8982 21.3335 19.5004V10.8332C21.3335 10.6256 21.2905 10.4202 21.207 10.2301C21.1236 10.04 21.0016 9.86932 20.8488 9.7288ZM19.8335 19.5004H15.3335V15.0004C15.3335 14.6025 15.1755 14.221 14.8942 13.9397C14.6129 13.6584 14.2313 13.5004 13.8335 13.5004H10.8335C10.4357 13.5004 10.0541 13.6584 9.77284 13.9397C9.49153 14.221 9.3335 14.6025 9.3335 15.0004V19.5004H4.8335V10.8332L4.84381 10.8238L12.3335 3.75036L19.8241 10.8219L19.8344 10.8313L19.8335 19.5004Z" fill="#9E9E9E"/>
</g>
<defs>
<clipPath id="clip0_375_397">
<rect width="24" height="24" fill="white" transform="translate(0.5)"/>
</clipPath>
</defs>
</svg>
