<svg width="12" height="20" viewBox="0 0 12 20" fill="none" xmlns="http://www.w3.org/2000/svg">
<path d="M11.1188 18.1314C11.2001 18.2127 11.2646 18.3092 11.3086 18.4155C11.3526 18.5217 11.3752 18.6355 11.3752 18.7505C11.3752 18.8655 11.3526 18.9793 11.3086 19.0855C11.2646 19.1917 11.2001 19.2883 11.1188 19.3696C11.0375 19.4508 10.941 19.5153 10.8347 19.5593C10.7285 19.6033 10.6147 19.626 10.4997 19.626C10.3847 19.626 10.2709 19.6033 10.1647 19.5593C10.0585 19.5153 9.96195 19.4508 9.88065 19.3696L1.13065 10.6195C1.04929 10.5383 0.984756 10.4418 0.940722 10.3356C0.896688 10.2293 0.874023 10.1155 0.874023 10.0005C0.874023 9.8855 0.896688 9.77164 0.940722 9.66541C0.984756 9.55919 1.04929 9.46269 1.13065 9.38142L9.88065 0.631424C10.0448 0.467238 10.2675 0.375 10.4997 0.375C10.7319 0.375 10.9546 0.467238 11.1188 0.631424C11.283 0.79561 11.3752 1.01829 11.3752 1.25049C11.3752 1.48268 11.283 1.70536 11.1188 1.86955L2.98674 10.0005L11.1188 18.1314Z" fill="#181818"/>
</svg>
