<svg width="20" height="18" viewBox="0 0 20 18" fill="none" xmlns="http://www.w3.org/2000/svg">
<path d="M18.25 0.75H1.75C1.35218 0.75 0.970644 0.908035 0.68934 1.18934C0.408035 1.47064 0.25 1.85218 0.25 2.25V15.75C0.25 16.1478 0.408035 16.5294 0.68934 16.8107C0.970644 17.092 1.35218 17.25 1.75 17.25H18.25C18.6478 17.25 19.0294 17.092 19.3107 16.8107C19.592 16.5294 19.75 16.1478 19.75 15.75V2.25C19.75 1.85218 19.592 1.47064 19.3107 1.18934C19.0294 0.908035 18.6478 0.75 18.25 0.75ZM18.25 15.75H1.75V2.25H18.25V15.75ZM5.5 4.875C5.5 5.0975 5.43402 5.31501 5.3104 5.50002C5.18679 5.68502 5.01109 5.82922 4.80552 5.91436C4.59995 5.99951 4.37375 6.02179 4.15552 5.97838C3.93729 5.93498 3.73684 5.82783 3.5795 5.6705C3.42217 5.51316 3.31502 5.31271 3.27162 5.09448C3.22821 4.87625 3.25049 4.65005 3.33564 4.44448C3.42078 4.23891 3.56498 4.06321 3.74998 3.9396C3.93499 3.81598 4.1525 3.75 4.375 3.75C4.67337 3.75 4.95952 3.86853 5.1705 4.0795C5.38147 4.29048 5.5 4.57663 5.5 4.875ZM9.25 4.875C9.25 5.0975 9.18402 5.31501 9.0604 5.50002C8.93679 5.68502 8.76109 5.82922 8.55552 5.91436C8.34995 5.99951 8.12375 6.02179 7.90552 5.97838C7.68729 5.93498 7.48684 5.82783 7.3295 5.6705C7.17217 5.51316 7.06502 5.31271 7.02162 5.09448C6.97821 4.87625 7.00049 4.65005 7.08564 4.44448C7.17078 4.23891 7.31498 4.06321 7.49998 3.9396C7.68499 3.81598 7.9025 3.75 8.125 3.75C8.42337 3.75 8.70952 3.86853 8.9205 4.0795C9.13147 4.29048 9.25 4.57663 9.25 4.875Z" fill="#181818"/>
</svg>
