<svg width="18" height="21" viewBox="0 0 18 21" fill="none" xmlns="http://www.w3.org/2000/svg">
<path d="M9 10.5C8.36962 10.5002 7.76037 10.7273 7.28361 11.1397C6.80684 11.552 6.4944 12.1222 6.40339 12.746C6.31238 13.3698 6.44887 14.0055 6.78793 14.5369C7.12699 15.0683 7.64596 15.46 8.25 15.6403V17.25C8.25 17.4489 8.32902 17.6397 8.46967 17.7803C8.61032 17.921 8.80109 18 9 18C9.19891 18 9.38968 17.921 9.53033 17.7803C9.67098 17.6397 9.75 17.4489 9.75 17.25V15.6403C10.354 15.46 10.873 15.0683 11.2121 14.5369C11.5511 14.0055 11.6876 13.3698 11.5966 12.746C11.5056 12.1222 11.1932 11.552 10.7164 11.1397C10.2396 10.7273 9.63038 10.5002 9 10.5ZM9 14.25C8.7775 14.25 8.55999 14.184 8.37498 14.0604C8.18998 13.9368 8.04578 13.7611 7.96064 13.5555C7.87549 13.35 7.85321 13.1238 7.89662 12.9055C7.94002 12.6873 8.04717 12.4868 8.2045 12.3295C8.36184 12.1722 8.56229 12.065 8.78052 12.0216C8.99875 11.9782 9.22495 12.0005 9.43052 12.0856C9.63609 12.1708 9.81179 12.315 9.9354 12.5C10.059 12.685 10.125 12.9025 10.125 13.125C10.125 13.4234 10.0065 13.7095 9.79549 13.9205C9.58452 14.1315 9.29837 14.25 9 14.25ZM16.5 7.5H13.5V5.25C13.5 4.05653 13.0259 2.91193 12.182 2.06802C11.3381 1.22411 10.1935 0.75 9 0.75C7.80653 0.75 6.66193 1.22411 5.81802 2.06802C4.97411 2.91193 4.5 4.05653 4.5 5.25V7.5H1.5C1.10218 7.5 0.720644 7.65804 0.43934 7.93934C0.158035 8.22064 0 8.60218 0 9V19.5C0 19.8978 0.158035 20.2794 0.43934 20.5607C0.720644 20.842 1.10218 21 1.5 21H16.5C16.8978 21 17.2794 20.842 17.5607 20.5607C17.842 20.2794 18 19.8978 18 19.5V9C18 8.60218 17.842 8.22064 17.5607 7.93934C17.2794 7.65804 16.8978 7.5 16.5 7.5ZM6 5.25C6 4.45435 6.31607 3.69129 6.87868 3.12868C7.44129 2.56607 8.20435 2.25 9 2.25C9.79565 2.25 10.5587 2.56607 11.1213 3.12868C11.6839 3.69129 12 4.45435 12 5.25V7.5H6V5.25ZM16.5 19.5H1.5V9H16.5V19.5Z" fill="#181818"/>
</svg>
