<svg width="14" height="14" viewBox="0 0 14 14" fill="none" xmlns="http://www.w3.org/2000/svg">
<path d="M10.9375 4.13656V2.1875C10.9375 1.95544 10.8453 1.73288 10.6812 1.56878C10.5171 1.40469 10.2946 1.3125 10.0625 1.3125H3.9375C3.70544 1.3125 3.48288 1.40469 3.31878 1.56878C3.15469 1.73288 3.0625 1.95544 3.0625 2.1875V4.15625C3.0628 4.29204 3.09455 4.42591 3.15528 4.54736C3.216 4.66881 3.30405 4.77454 3.4125 4.85625L6.27102 7L3.4125 9.14375C3.30405 9.22546 3.216 9.33119 3.15528 9.45264C3.09455 9.57409 3.0628 9.70796 3.0625 9.84375V11.8125C3.0625 12.0446 3.15469 12.2671 3.31878 12.4312C3.48288 12.5953 3.70544 12.6875 3.9375 12.6875H10.0625C10.2946 12.6875 10.5171 12.5953 10.6812 12.4312C10.8453 12.2671 10.9375 12.0446 10.9375 11.8125V9.86344C10.9371 9.72826 10.9056 9.59498 10.8454 9.47395C10.7852 9.35293 10.6979 9.24742 10.5902 9.16563L7.7257 7L10.5902 4.83492C10.6979 4.75304 10.7852 4.64744 10.8455 4.52632C10.9057 4.4052 10.9372 4.27183 10.9375 4.13656ZM9.74695 9.625H4.22898L7 7.54688L9.74695 9.625ZM10.0625 4.13656L7 6.45312L3.9375 4.15625V2.1875H10.0625V4.13656Z" fill="#F4C700"/>
</svg>
