<svg width="22" height="18" viewBox="0 0 22 18" fill="none" xmlns="http://www.w3.org/2000/svg">
<path d="M21.1053 5.34341L11.3553 0.0934116C11.2461 0.034659 11.124 0.00390625 11 0.00390625C10.876 0.00390625 10.7539 0.034659 10.6447 0.0934116L0.894688 5.34341C0.776011 5.40725 0.676727 5.50189 0.607274 5.61737C0.537821 5.73285 0.500764 5.86491 0.5 5.99966V11.9997C0.49992 12.1352 0.536578 12.2683 0.606076 12.3846C0.675574 12.501 0.775313 12.5964 0.894688 12.6606L10.6447 17.9106C10.7539 17.9694 10.876 18.0001 11 18.0001C11.124 18.0001 11.2461 17.9694 11.3553 17.9106L21.1053 12.6606C21.2247 12.5964 21.3244 12.501 21.3939 12.3846C21.4634 12.2683 21.5001 12.1352 21.5 11.9997V5.99966C21.4992 5.86491 21.4622 5.73285 21.3927 5.61737C21.3233 5.50189 21.224 5.40725 21.1053 5.34341ZM20 10.7444L16.7609 8.99966L20 7.25497V10.7444ZM15.1784 8.14748L11.75 6.30154V2.00497L19.1684 5.99966L15.1784 8.14748ZM11 10.3975L8.40313 8.99966L11 7.60185L13.5969 8.99966L11 10.3975ZM10.25 2.00497V6.30154L6.82156 8.14748L2.83156 5.99966L10.25 2.00497ZM2 7.25497L5.23906 8.99966L2 10.7444V7.25497ZM6.82156 9.85185L10.25 11.6978V15.9944L2.83156 11.9997L6.82156 9.85185ZM11.75 15.9944V11.6978L15.1784 9.85185L19.1684 11.9997L11.75 15.9944Z" fill="#181818"/>
</svg>
