<svg width="20" height="20" viewBox="0 0 20 20" fill="none" xmlns="http://www.w3.org/2000/svg">
<path d="M13.7497 12.4996C13.3328 12.4994 12.9201 12.583 12.536 12.7452C12.1519 12.9074 11.8043 13.1451 11.5138 13.4441L7.9122 11.1293C8.1955 10.4028 8.1955 9.59637 7.9122 8.86988L11.5138 6.55504C12.0547 7.1092 12.7822 7.44274 13.5551 7.491C14.3281 7.53926 15.0914 7.29881 15.6971 6.81625C16.3028 6.33369 16.7078 5.64342 16.8335 4.87925C16.9592 4.11508 16.7966 3.33147 16.3774 2.68033C15.9581 2.02919 15.312 1.55692 14.5644 1.35508C13.8167 1.15324 13.0207 1.23621 12.3307 1.5879C11.6408 1.93959 11.106 2.53495 10.83 3.25855C10.5541 3.98215 10.5566 4.78244 10.8372 5.50426L7.23564 7.8191C6.80194 7.37385 6.24531 7.06804 5.63692 6.94078C5.02852 6.81351 4.39599 6.87057 3.82019 7.10465C3.24438 7.33873 2.75147 7.73921 2.40445 8.25488C2.05743 8.77056 1.87207 9.37801 1.87207 9.99957C1.87207 10.6211 2.05743 11.2286 2.40445 11.7443C2.75147 12.2599 3.24438 12.6604 3.82019 12.8945C4.39599 13.1286 5.02852 13.1856 5.63692 13.0584C6.24531 12.9311 6.80194 12.6253 7.23564 12.18L10.8372 14.4949C10.5959 15.1172 10.5602 15.8004 10.7353 16.4444C10.9104 17.0885 11.2871 17.6595 11.8102 18.074C12.3334 18.4885 12.9755 18.7245 13.6425 18.7477C14.3095 18.7708 14.9664 18.5798 15.517 18.2026C16.0676 17.8254 16.483 17.2818 16.7023 16.6514C16.9216 16.0211 16.9334 15.3371 16.7358 14.6996C16.5383 14.062 16.1418 13.5045 15.6044 13.1086C15.0671 12.7128 14.4171 12.4993 13.7497 12.4996ZM13.7497 2.49957C14.1205 2.49957 14.4831 2.60954 14.7914 2.81557C15.0997 3.02159 15.3401 3.31443 15.482 3.65704C15.6239 3.99965 15.661 4.37665 15.5887 4.74037C15.5163 5.10408 15.3377 5.43817 15.0755 5.7004C14.8133 5.96262 14.4792 6.1412 14.1155 6.21354C13.7518 6.28589 13.3748 6.24876 13.0322 6.10685C12.6896 5.96493 12.3967 5.72461 12.1907 5.41627C11.9847 5.10792 11.8747 4.74541 11.8747 4.37457C11.8747 3.87729 12.0722 3.40038 12.4239 3.04875C12.7755 2.69712 13.2524 2.49957 13.7497 2.49957ZM4.9997 11.8746C4.62886 11.8746 4.26635 11.7646 3.95801 11.5586C3.64966 11.3525 3.40934 11.0597 3.26743 10.7171C3.12551 10.3745 3.08838 9.99749 3.16073 9.63378C3.23307 9.27006 3.41165 8.93597 3.67387 8.67375C3.9361 8.41152 4.27019 8.23295 4.63391 8.1606C4.99762 8.08825 5.37462 8.12538 5.71723 8.2673C6.05984 8.40921 6.35268 8.64954 6.5587 8.95788C6.76473 9.26622 6.8747 9.62873 6.8747 9.99957C6.8747 10.4969 6.67716 10.9738 6.32552 11.3254C5.97389 11.677 5.49698 11.8746 4.9997 11.8746ZM13.7497 17.4996C13.3789 17.4996 13.0163 17.3896 12.708 17.1836C12.3997 16.9775 12.1593 16.6847 12.0174 16.3421C11.8755 15.9995 11.8384 15.6225 11.9107 15.2588C11.9831 14.8951 12.1617 14.561 12.4239 14.2987C12.6861 14.0365 13.0202 13.8579 13.3839 13.7856C13.7476 13.7133 14.1246 13.7504 14.4672 13.8923C14.8098 14.0342 15.1027 14.2745 15.3087 14.5829C15.5147 14.8912 15.6247 15.2537 15.6247 15.6246C15.6247 16.1219 15.4272 16.5988 15.0755 16.9504C14.7239 17.302 14.247 17.4996 13.7497 17.4996Z" fill="#5D5FEF"/>
</svg>
