<svg width="8" height="8" viewBox="0 0 8 8" fill="none" xmlns="http://www.w3.org/2000/svg">
<path d="M4 0.75C3.35721 0.75 2.72886 0.940609 2.1944 1.29772C1.65994 1.65484 1.24338 2.16242 0.997393 2.75628C0.751408 3.35014 0.687047 4.00361 0.812449 4.63404C0.937851 5.26448 1.24738 5.84358 1.7019 6.2981C2.15643 6.75262 2.73552 7.06215 3.36596 7.18755C3.9964 7.31295 4.64986 7.24859 5.24372 7.00261C5.83758 6.75662 6.34516 6.34006 6.70228 5.8056C7.05939 5.27114 7.25 4.64279 7.25 4C7.24909 3.13833 6.90639 2.3122 6.29709 1.70291C5.6878 1.09361 4.86168 0.75091 4 0.75ZM6.75 4C6.75064 4.64298 6.52483 5.26565 6.11219 5.75875L2.24125 1.8875C2.64281 1.55343 3.13122 1.34064 3.64931 1.27402C4.1674 1.20741 4.69374 1.28973 5.16675 1.51135C5.63976 1.73297 6.03987 2.08473 6.32026 2.52545C6.60064 2.96618 6.7497 3.47765 6.75 4ZM1.25 4C1.24936 3.35702 1.47517 2.73435 1.88781 2.24125L5.75875 6.1125C5.35719 6.44657 4.86879 6.65936 4.3507 6.72598C3.83261 6.79259 3.30626 6.71027 2.83325 6.48865C2.36024 6.26703 1.96013 5.91527 1.67975 5.47455C1.39936 5.03382 1.2503 4.52235 1.25 4Z" fill="#CB3A31"/>
</svg>
