<svg width="25" height="24" viewBox="0 0 25 24" fill="none" xmlns="http://www.w3.org/2000/svg">
<path d="M21.9656 9.795C22.3044 9.72606 22.609 9.54219 22.8278 9.27449C23.0467 9.00679 23.1663 8.6717 23.1665 8.32594V6C23.1665 5.60218 23.0085 5.22064 22.7272 4.93934C22.4459 4.65804 22.0643 4.5 21.6665 4.5H3.66651C3.26868 4.5 2.88715 4.65804 2.60585 4.93934C2.32454 5.22064 2.16651 5.60218 2.16651 6V8.32594C2.1667 8.6717 2.28633 9.00679 2.50517 9.27449C2.72402 9.54219 3.02862 9.72606 3.36744 9.795C3.87407 9.90006 4.32901 10.1765 4.65563 10.5778C4.98224 10.9791 5.16056 11.4807 5.16056 11.9981C5.16056 12.5155 4.98224 13.0171 4.65563 13.4184C4.32901 13.8197 3.87407 14.0962 3.36744 14.2013C3.02799 14.2703 2.7229 14.4547 2.50399 14.7232C2.28507 14.9917 2.16583 15.3277 2.16651 15.6741V18C2.16651 18.3978 2.32454 18.7794 2.60585 19.0607C2.88715 19.342 3.26868 19.5 3.66651 19.5H21.6665C22.0643 19.5 22.4459 19.342 22.7272 19.0607C23.0085 18.7794 23.1665 18.3978 23.1665 18V15.6741C23.1663 15.3283 23.0467 14.9932 22.8278 14.7255C22.609 14.4578 22.3044 14.2739 21.9656 14.205C21.4589 14.0999 21.004 13.8235 20.6774 13.4222C20.3508 13.0209 20.1725 12.5193 20.1725 12.0019C20.1725 11.4845 20.3508 10.9829 20.6774 10.5816C21.004 10.1803 21.4589 9.90381 21.9656 9.79875V9.795ZM3.66651 15.675C4.51372 15.5024 5.27527 15.0424 5.82223 14.3728C6.36919 13.7031 6.66796 12.8651 6.66796 12.0005C6.66796 11.1359 6.36919 10.2978 5.82223 9.62819C5.27527 8.95857 4.51372 8.49852 3.66651 8.32594V6H8.91651V18H3.66651V15.675ZM21.6665 15.675V18H10.4165V6H21.6665V8.325C20.8193 8.49759 20.0577 8.95763 19.5108 9.62725C18.9638 10.2969 18.6651 11.1349 18.6651 11.9995C18.6651 12.8641 18.9638 13.7022 19.5108 14.3718C20.0577 15.0414 20.8193 15.5015 21.6665 15.6741V15.675Z" fill="#9E9E9E"/>
</svg>
