<svg width="36" height="36" viewBox="0 0 36 36" fill="none" xmlns="http://www.w3.org/2000/svg">
<path d="M28.1246 9V23.625C28.1246 23.9234 28.0061 24.2095 27.7951 24.4205C27.5842 24.6315 27.298 24.75 26.9996 24.75C26.7013 24.75 26.4151 24.6315 26.2042 24.4205C25.9932 24.2095 25.8746 23.9234 25.8746 23.625V11.7155L9.79559 27.7959C9.58449 28.007 9.29818 28.1256 8.99965 28.1256C8.70111 28.1256 8.41481 28.007 8.20371 27.7959C7.99262 27.5848 7.87402 27.2985 7.87402 27C7.87402 26.7015 7.99262 26.4152 8.20371 26.2041L24.2842 10.125H12.3746C12.0763 10.125 11.7901 10.0065 11.5792 9.79549C11.3682 9.58452 11.2496 9.29837 11.2496 9C11.2496 8.70163 11.3682 8.41548 11.5792 8.20451C11.7901 7.99353 12.0763 7.875 12.3746 7.875H26.9996C27.298 7.875 27.5842 7.99353 27.7951 8.20451C28.0061 8.41548 28.1246 8.70163 28.1246 9Z" fill="#4CB883"/>
</svg>
