<svg width="25" height="24" viewBox="0 0 25 24" fill="none" xmlns="http://www.w3.org/2000/svg">
<path d="M21.9821 19.8746C20.5543 17.4062 18.354 15.6362 15.7862 14.7971C17.0564 14.041 18.0432 12.8888 18.5951 11.5176C19.1471 10.1463 19.2337 8.63175 18.8416 7.20652C18.4494 5.78129 17.6003 4.52418 16.4246 3.62824C15.2489 2.7323 13.8116 2.24707 12.3334 2.24707C10.8552 2.24707 9.41788 2.7323 8.24216 3.62824C7.06643 4.52418 6.21732 5.78129 5.8252 7.20652C5.43309 8.63175 5.51966 10.1463 6.07162 11.5176C6.62358 12.8888 7.61042 14.041 8.88057 14.7971C6.31276 15.6352 4.11245 17.4052 2.68463 19.8746C2.63227 19.96 2.59754 20.055 2.58249 20.154C2.56744 20.253 2.57237 20.3541 2.597 20.4511C2.62163 20.5482 2.66545 20.6394 2.72588 20.7192C2.78631 20.7991 2.86212 20.8661 2.94884 20.9162C3.03557 20.9663 3.13145 20.9985 3.23083 21.0109C3.33021 21.0234 3.43107 21.0158 3.52747 20.9886C3.62386 20.9614 3.71384 20.9152 3.79209 20.8527C3.87034 20.7902 3.93528 20.7126 3.98307 20.6246C5.74932 17.5721 8.8712 15.7496 12.3334 15.7496C15.7956 15.7496 18.9174 17.5721 20.6837 20.6246C20.7315 20.7126 20.7964 20.7902 20.8747 20.8527C20.9529 20.9152 21.0429 20.9614 21.1393 20.9886C21.2357 21.0158 21.3366 21.0234 21.4359 21.0109C21.5353 20.9985 21.6312 20.9663 21.7179 20.9162C21.8046 20.8661 21.8805 20.7991 21.9409 20.7192C22.0013 20.6394 22.0451 20.5482 22.0698 20.4511C22.0944 20.3541 22.0993 20.253 22.0843 20.154C22.0692 20.055 22.0345 19.96 21.9821 19.8746ZM7.08338 8.99962C7.08338 7.96127 7.39129 6.94624 7.96817 6.08288C8.54505 5.21952 9.36498 4.54661 10.3243 4.14925C11.2836 3.75189 12.3392 3.64793 13.3576 3.8505C14.376 4.05307 15.3115 4.55308 16.0457 5.28731C16.7799 6.02154 17.2799 6.957 17.4825 7.9754C17.6851 8.9938 17.5811 10.0494 17.1838 11.0087C16.7864 11.968 16.1135 12.788 15.2501 13.3648C14.3868 13.9417 13.3717 14.2496 12.3334 14.2496C10.9415 14.2481 9.60696 13.6945 8.62272 12.7103C7.63847 11.726 7.08487 10.3916 7.08338 8.99962Z" fill="#9E9E9E"/>
</svg>
