<svg width="22" height="23" viewBox="0 0 22 23" fill="none" xmlns="http://www.w3.org/2000/svg">
<path d="M19.75 0.375H2.25C1.78587 0.375 1.34075 0.559374 1.01256 0.887563C0.684374 1.21575 0.5 1.66087 0.5 2.125V8.55406C0.5 18.3552 8.79281 21.6069 10.4531 22.1592C10.8077 22.2798 11.1923 22.2798 11.5469 22.1592C13.2094 21.6069 21.5 18.3552 21.5 8.55406V2.125C21.5 1.66087 21.3156 1.21575 20.9874 0.887563C20.6592 0.559374 20.2141 0.375 19.75 0.375ZM19.75 8.55516C19.75 17.1323 12.493 19.998 11 20.4967C9.52016 20.0034 2.25 17.14 2.25 8.55516V2.125H19.75V8.55516ZM6.00594 11.4941C5.84175 11.3299 5.74951 11.1072 5.74951 10.875C5.74951 10.6428 5.84175 10.4201 6.00594 10.2559C6.17012 10.0918 6.39281 9.99951 6.625 9.99951C6.85719 9.99951 7.07988 10.0918 7.24406 10.2559L9.25 12.2619L14.7559 6.75594C14.8372 6.67464 14.9337 6.61015 15.04 6.56616C15.1462 6.52216 15.26 6.49951 15.375 6.49951C15.49 6.49951 15.6038 6.52216 15.71 6.56616C15.8163 6.61015 15.9128 6.67464 15.9941 6.75594C16.0754 6.83723 16.1398 6.93375 16.1838 7.03997C16.2278 7.14618 16.2505 7.26003 16.2505 7.375C16.2505 7.48997 16.2278 7.60382 16.1838 7.71003C16.1398 7.81625 16.0754 7.91277 15.9941 7.99406L9.86906 14.1191C9.7878 14.2004 9.6913 14.265 9.58507 14.309C9.47885 14.353 9.36499 14.3757 9.25 14.3757C9.13501 14.3757 9.02115 14.353 8.91493 14.309C8.8087 14.265 8.7122 14.2004 8.63094 14.1191L6.00594 11.4941Z" fill="#5D5FEF"/>
</svg>
