<svg width="29" height="28" viewBox="0 0 29 28" fill="none" xmlns="http://www.w3.org/2000/svg">
<path d="M25 16.625V22.75C25 23.2141 24.8156 23.6592 24.4874 23.9874C24.1592 24.3156 23.7141 24.5 23.25 24.5H5.75C5.28587 24.5 4.84075 24.3156 4.51256 23.9874C4.18437 23.6592 4 23.2141 4 22.75V16.625C4 16.3929 4.09219 16.1704 4.25628 16.0063C4.42038 15.8422 4.64294 15.75 4.875 15.75C5.10706 15.75 5.32962 15.8422 5.49372 16.0063C5.65781 16.1704 5.75 16.3929 5.75 16.625V22.75H23.25V16.625C23.25 16.3929 23.3422 16.1704 23.5063 16.0063C23.6704 15.8422 23.8929 15.75 24.125 15.75C24.3571 15.75 24.5796 15.8422 24.7437 16.0063C24.9078 16.1704 25 16.3929 25 16.625ZM13.8809 17.2441C13.9622 17.3254 14.0587 17.39 14.1649 17.434C14.2712 17.478 14.385 17.5007 14.5 17.5007C14.615 17.5007 14.7288 17.478 14.8351 17.434C14.9413 17.39 15.0378 17.3254 15.1191 17.2441L19.4941 12.8691C19.5754 12.7878 19.6398 12.6913 19.6838 12.585C19.7278 12.4788 19.7505 12.365 19.7505 12.25C19.7505 12.135 19.7278 12.0212 19.6838 11.915C19.6398 11.8087 19.5754 11.7122 19.4941 11.6309C19.4128 11.5496 19.3163 11.4852 19.21 11.4412C19.1038 11.3972 18.99 11.3745 18.875 11.3745C18.76 11.3745 18.6462 11.3972 18.54 11.4412C18.4337 11.4852 18.3372 11.5496 18.2559 11.6309L15.375 14.513V4.375C15.375 4.14294 15.2828 3.92038 15.1187 3.75628C14.9546 3.59219 14.7321 3.5 14.5 3.5C14.2679 3.5 14.0454 3.59219 13.8813 3.75628C13.7172 3.92038 13.625 4.14294 13.625 4.375V14.513L10.7441 11.6309C10.5799 11.4668 10.3572 11.3745 10.125 11.3745C9.89281 11.3745 9.67012 11.4668 9.50594 11.6309C9.34175 11.7951 9.24951 12.0178 9.24951 12.25C9.24951 12.4822 9.34175 12.7049 9.50594 12.8691L13.8809 17.2441Z" fill="white"/>
</svg>
